/* XPM */
static char * coin_xpm[] = {
"64 64 87 1",
" 	c #000000",
".	c #F8F8F1",
"+	c #620F0F",
"@	c #480B0B",
"#	c #891515",
"$	c #7C1313",
"%	c #6F1111",
"&	c #A31919",
"*	c #550D0D",
"=	c #3B0909",
"-	c #B01B1B",
";	c #A40707",
">	c #210505",
",	c #860505",
"'	c #F75353",
")	c #D30C0C",
"!	c #880606",
"~	c #971111",
"{	c #F42626",
"]	c #2C0101",
"^	c #770404",
"/	c #880707",
"(	c #A60808",
"_	c #A60909",
":	c #790606",
"<	c #B50A0A",
"[	c #C40A0A",
"}	c #B31515",
"|	c #A61E1E",
"1	c #970808",
"2	c #C30B0B",
"3	c #C40B0B",
"4	c #E10C0C",
"5	c #F07777",
"6	c #A82F2F",
"7	c #F21A1A",
"8	c #F98E8E",
"9	c #C11717",
"0	c #B32020",
"a	c #CD2424",
"b	c #E10D0D",
"c	c #F43434",
"d	c #C03535",
"e	c #DB8383",
"f	c #B43232",
"g	c #8C1A1A",
"h	c #7F1818",
"i	c #C93B3B",
"j	c #CC4747",
"k	c #D25F5F",
"l	c #651414",
"m	c #991C1C",
"n	c #3D0202",
"o	c #C02222",
"p	c #B50909",
"q	c #D30B0B",
"r	c #970707",
"s	c #F42929",
"t	c #DD4141",
"u	c #2E0202",
"v	c #782323",
"w	c #E15B5B",
"x	c #D92727",
"y	c #721616",
"z	c #902929",
"A	c #DB3434",
"B	c #4C0303",
"C	c #1F0101",
"D	c #9C2C2C",
"E	c #5B0303",
"F	c #6C2020",
"G	c #6A0404",
"H	c #2E0707",
"I	c #601D1D",
"J	c #C21010",
"K	c #140303",
"L	c #3E0C0C",
"M	c #961717",
"N	c #E24343",
"O	c #581111",
"P	c #DE2929",
"Q	c #F53838",
"R	c #F00D0D",
"S	c #790505",
"T	c #070101",
"U	c #F31A1A",
"V	c #B30808",
"                                                                ",
"                                                                ",
"                       .                                        ",
"                                                                ",
"                                                                ",
"                                                                ",
"                                        .                       ",
"                                                                ",
"                                                                ",
"                                                      .         ",
"          .                                                     ",
"                                                                ",
"                                                                ",
"                                                                ",
"                                                                ",
"                                                                ",
"                            +@#$++                              ",
"                          +++%&%@@*=                            ",
"                           +++#-+*+=                            ",
"                      ;        +++> ; ,';;                      ",
"                       ) !!!! ~    ;; ;{]^;                     ",
"                    ))/) !!(! ~~~~  ; ;                         ",
"                   ))_:<) [(!! ~}~ ;   ++++                     ",
"                 | ))123) !4!! ~5~~   ++++ 666                  ",
"                || ))78)3)  !! ~9~        666666                ",
"     .         00aa )bc_1_))       !!!! 66deff66                ",
"    ...        ghha )))_1:<)) aaa !!!!! 66ij6k666               ",
"     .        ala0ma  ))_n3  aaaa !!!!!! 66jef666      .        ",
"              g0aao|aa     aaama !!p[q!! 666666666              ",
"             agaaaaa0mhaaaaaaa0a !![rsr!! 66666666              ",
"             omaattaaaaaaaaaaa0a !!p[pp!u 666v6666              ",
"             |maawaxaaaaao|yaaga !!!r(!!u 66z6                  ",
"             |0aAtaaAaaaa|aa0ama !!!!!!BC 6vD ++*+              ",
"             00aAxAxtalmmlgaoa0aa !!!!!EE 6F6 +=+               ",
"             0oaaxxtAagamo0|0mhaa !!!!EGE 6v ++H+ +             ",
"             0maaaaAa0mgooo0aoggoa !!!EE! I6 ++H H+             ",
"             amaaaaamaaaaaa|oamooa !!!B!      +@ *+             ",
"              mo|aagaaaaaaaa0aagoaa  !   ;;; ++*+*+             ",
"              gom|aaaa     ao|am00aaa  ; ;;;  +* =+             ",
"               |aoma  +++++  0oa|0aaa J     ! +> K              ",
"               0aag ++%%%++++ mo0Lga JJ !!!!! ++>               ",
"                gam +&MN%++++ |oOaaa J !!rp(!!                  ",
"                 h ++#-P$++++* oaaaa  !!!qQR!!!ES               ",
"                   ++++++++++T gaaaa  !!!Up!!!GS   .            ",
"                    +@**++++@* aaa    !!!!!!!n!!                ",
"                       +@*@>=           !uG!!G                  ",
"                    ;;;                                         ",
"                      ;V;;;                                     ",
"              .                                                 ",
"                                                                ",
"                                                                ",
"                                                                ",
"                                                                ",
"                                                                ",
"                                                                ",
"                                                                ",
"                                                                ",
"                                                                ",
"                                          .           .         ",
"                                                                ",
"     .                                                   .      ",
"                                                                ",
"                                                                ",
"                                                                "};
