/* XPM */
static char * exit_xpm[] = {
"64 64 46 1",
" 	c #000000",
".	c #F8F8F1",
"+	c #FFFFFF",
"@	c #F7F7F7",
"#	c #DFDFDF",
"$	c #74D4F4",
"%	c #66CCF3",
"&	c #2EC0EF",
"*	c #4AC9F1",
"=	c #11ADDF",
"-	c #0F97C3",
";	c #9EE0F7",
">	c #90DCF6",
",	c #82D8F5",
"'	c #E7E7E7",
")	c #0D81A7",
"!	c #10A2D1",
"~	c #3CC4F0",
"{	c #12B8ED",
"]	c #20BCEE",
"^	c #0C7699",
"/	c #4AC8F1",
"(	c #58CCF2",
"_	c #F3F3E7",
":	c #09556F",
"<	c #EEEEDD",
"[	c #E9E9D3",
"}	c #DFDFBF",
"|	c #D7D7D7",
"1	c #CBCB97",
"2	c #B7B7B7",
"3	c #0E8CB5",
"4	c #DADAB5",
"5	c #66D0F3",
"6	c #979797",
"7	c #C7C7C7",
"8	c #BFBFBF",
"9	c #FDFDFB",
"0	c #EFEFEF",
"a	c #74D5F4",
"b	c #1E9FCD",
"c	c #063445",
"d	c #084A61",
"e	c #BAE9F9",
"f	c #E4E4C9",
"g	c #D5D5AB",
"                                                                ",
"                                                                ",
"                       .                                        ",
"                                                                ",
"                                                                ",
"                                                                ",
"                                        .                       ",
"                                                                ",
"                         ++++++++++                             ",
"                      +@#$$%&*=-;>,+++                .         ",
"          .         +')!~&{]..........++                        ",
"                  +'-^~$/...          ...+                      ",
"                 +~=&$(..                ..                     ",
"                +]=]~..    ........        ..                   ",
"               +&-=&.   ........._:<..      @[                  ",
"              +]!{&.  ....        ._}!<.     |[                 ",
"             +]){&. ...              .1&..    2.                ",
"            +~3~&. ..                  4]5.    |.               ",
"           +&!=~. ..                    <|$.    6.              ",
"           +]!/. .                        75.   8&.             ",
"          +=!~.  .                        []9    8&.            ",
"          +)~&. .                          [].   |!.            ",
"         @&)/. .                            |=.   '&.           ",
"         0-(&. .                            <&<   +=.           ",
"         0/~. .                              #!.  +=&.          ",
"     .   |&~. .                              @!_  +&=.          ",
"    ... +!~/. .                              .{<   +-.          ",
"     .  +=]~..                                _{.  +{. .        ",
"        +]=+ .                                _a.  +b&.         ",
"        +&{9 .                                ./.  +!{.         ",
"        +~!+ .                                .].  +{!.         ",
"        +~&. .                                .&.  +={.         ",
"        +/]. .                                +!.  +^!.         ",
"        +]]. .                                +3.  +==.         ",
"        +/=. .                                +-.  +!].         ",
"         #c. ..                              .$3. +(-&.         ",
"         +d. ..                              .~=. +&=&.         ",
"         +&&. .                              .![  +&)<          ",
"         +a&. ..                            .!{<  +{:.          ",
"          +&. ..                            .]{. +(-{.          ",
"          +5.  ..                          _]&_  +&-{.          ",
"           +&. .&.       .                _3({. +{&{.           ",
"           +e.  ..                        [~!.  @{&=.           ",
"            +&.  ...                    .[={.  +={&.            ",
"             +.  .&&.                  .{&{&. +{{&].            ",
"              +.  .&&..              ..=~=&. +{{{(.             ",
"               +.  .&&&...        ...]{~{!< +!)&&.              ",
"                +.  ..&d-{........&&!{]][. +]-]]@               ",
"              .  |.   ..]!)d-=!=]&-=/~[<  +])~&@                ",
"                  |_    .+9(~/~]--!f[.  ++=!&{_                 ",
"                    g+     ........   @0{-&~!.                  ",
"                     4[++          '#8]~/~^[.                   ",
"                       gf+++++++@'#{~((~&..                     ",
"                         }}4!~]{^%/&]]...                       ",
"                            ..<g'_....                          ",
"                                                                ",
"                                                                ",
"                                                                ",
"                                          .           .         ",
"                                                                ",
"     .                                                   .      ",
"                                                                ",
"                                                                ",
"                                                                "};
