/* XPM */
static char * player_xpm[] = {
"64 64 108 2",
"  	c #000000",
". 	c #F8F8F1",
"+ 	c #043A05",
"@ 	c #054806",
"# 	c #065607",
"$ 	c #0B9C0C",
"% 	c #0CC40D",
"& 	c #09800A",
"* 	c #0AA80B",
"= 	c #0BB60C",
"- 	c #303030",
"; 	c #383838",
"> 	c #077D08",
", 	c #2AF22B",
"' 	c #38F339",
") 	c #484848",
"! 	c #404040",
"~ 	c #088C09",
"{ 	c #066E07",
"] 	c #46F447",
"^ 	c #282828",
"/ 	c #EEFAF7",
"( 	c #FAFDFD",
"_ 	c #099A0A",
": 	c #0FEE10",
"< 	c #0EE00F",
"[ 	c #FFFFFF",
"} 	c #202020",
"| 	c #BEEBE0",
"1 	c #CAEFE6",
"2 	c #585858",
"3 	c #5ECBB0",
"4 	c #9ADFCE",
"5 	c #0DD20E",
"6 	c #505050",
"7 	c #82D7C2",
"8 	c #76D3BC",
"9 	c #034104",
"0 	c #606060",
"a 	c #D6F3EC",
"b 	c #8EDBC8",
"c 	c #154539",
"d 	c #A6E3D4",
"e 	c #080808",
"f 	c #9ADECD",
"g 	c #46C3A4",
"h 	c #3DBD9D",
"i 	c #181818",
"j 	c #101010",
"k 	c #1CF11D",
"l 	c #54F555",
"m 	c #076408",
"n 	c #011401",
"o 	c #055F06",
"p 	c #045005",
"q 	c #087209",
"r 	c #023203",
"s 	c #62F663",
"t 	c #FF2D2D",
"u 	c #FF6969",
"v 	c #FF7878",
"w 	c #FF0000",
"x 	c #FF1E1E",
"y 	c #FF8787",
"z 	c #FFC3C3",
"A 	c #F00000",
"B 	c #FF0F0F",
"C 	c #C30000",
"D 	c #960000",
"E 	c #E10000",
"F 	c #FF5A5A",
"G 	c #FF3C3C",
"H 	c #870000",
"I 	c #FF4B4B",
"J 	c #A50000",
"K 	c #D20000",
"L 	c #FFA5A5",
"M 	c #B40000",
"N 	c #7EF87F",
"O 	c #FFE1E1",
"P 	c #012302",
"Q 	c #021E03",
"R 	c #032C04",
"S 	c #70F771",
"T 	c #000500",
"U 	c #0EE10F",
"V 	c #D25900",
"W 	c #690000",
"X 	c #5A2600",
"Y 	c #FF6B00",
"Z 	c #FF8F3C",
"` 	c #FF7D0F",
" .	c #FF740F",
"..	c #F06500",
"+.	c #E15F00",
"@.	c #FFDB00",
"#.	c #FF862D",
"$.	c #FF7D1E",
"%.	c #FFAA69",
"&.	c #FFB378",
"*.	c #FFE12D",
"=.	c #FFED87",
"-.	c #FFDD0F",
";.	c #FFE969",
">.	c #FFE54B",
",.	c #FFF3B4",
"'.	c #FFE75A",
").	c #FFE33C",
"                                                                                                                                ",
"                                                                                                                                ",
"                                              .                                                                                 ",
"                                                                                                                                ",
"                                                              + +                                                               ",
"                                                              @ @                                                               ",
"                                                              # @               .                                               ",
"                                                              $ @                                                               ",
"                                                            % # & *                                                             ",
"                                                            = - ; >                                         .                   ",
"                    .               ,                     * ' ) ! ~ ~                     {                                     ",
"                                    ]                     = ^ / ( ; _                     >                                     ",
"                                    :                   ] < ) [ [ } * _                   {                                     ",
"                                    =                 % % ! ( [ | 1 ^ _ *                 >                                     ",
"                                      = ) ^           = * 2 | [ 3 4 ) * _               *                                       ",
"                                      5 * > = ~ *   % * 6 1 ( / 7 8 | } _ *   * > _ ~ 9 _                                       ",
"                                                  * 5 5 0 a [ | b c d e * * *                                                   ",
"                                                  < * ^ [ [ f 7 g h 4 | i * *                                                   ",
"                                                % < * 0 ; ; } ^ - j ^ } ; > * *                                                 ",
"                                                k * * = ' l _ m m ~ * n { ~ 9 ~                                                 ",
"                                                  - ^ e   ' _ m m ~ *                                                           ",
"                                                          , = m # _ *                                                           ",
"                                                        * , = m m _ * *                                                         ",
"                                                        * ] = m m ~ ~ *                                                         ",
"                  =                                     * k % m # _ _ _                                     o                   ",
"          .     ; *                                   * * < % m & _ * _ *                                   p                   ",
"        . . .   } % *                                 * * k % m q ~ * _ *                                 * 9                   ",
"          .       k *                                 * * ' * m m ~ * _ *                                 * r                   ",
"                  5 %                               * * * ] = m # _ * _ * *                               * o                   ",
"                    k                               * * = s * m m ~ * ~ ~ *                               {                     ",
"                    % <                             * * %             ~ ~ *                             ~ >                     ",
"                      = %                         * * 5   t u v u t w   > * *                         > ~                       ",
"                        5 *                       * *   x y z t x x w w   { *                       * *                         ",
"                        } * *                     *   A v B w A C D E E w   _                     * *                           ",
"                          * ' ' < 5 * = _ o *   * %   F G w E D H C A E A   > *   * ~ ~ _ _ * * * ~ ~                           ",
"                                                * %   I I w C J J E K A K   ~ *                                                 ",
"                                                = =   I t B C K K w J K E   ~ _                                                 ",
"                                              * % *   L x x K C C M D J A   * > *                                               ",
"                                              * % *   t F t E K E J D A w   * > *                                               ",
"                                          * N * % * *   F G I B A K w w   > * { { ~ *                                           ",
"                                            % ' < = = 5   F O F w w w   { p { P ~ *                                             ",
"                                              j k * * 5 *     }       r p > * *                                                 ",
"                                                -     5 * % ] Q R p 9 ~ *                                                       ",
"                                                  { *   } % S Q   9 _     * {                         .                         ",
"                                                  * > > *             * p T *                                                   ",
"                                                    * _ p o { > * * o o , 5                                                     ",
"                                                    k 5 = = * _ o p U , % *                                                     ",
"                                                        % % k k ' 5 5 *                                                         ",
"                            .                       K                   J J V                                                   ",
"                                                    W t H               M C X                                                   ",
"                                                  Y Z M M               E x A                                                   ",
"                                                  Y ` M  ...          Y  .t +.                                                  ",
"                                                  @.#.x  .@.          $.%.&.                                                    ",
"                                                    *.Z Y @.          =.Z -.                                                    ",
"                                                    @.&.Y             ;.>.@.                                                    ",
"                                                    @.;.@.            i ,.@.                                                    ",
"                                                    @.'.                @.                                                      ",
"                                                      ).                                                                        ",
"                                                                                    .                       .                   ",
"                                                                                                                                ",
"          .                                                                                                       .             ",
"                                                                                                                                ",
"                                                                                                                                ",
"                                                                                                                                "};
