/* XPM */
static char * wall_xpm[] = {
"64 64 124 2",
"  	c #000000",
". 	c #F8F8F1",
"+ 	c #0B516E",
"@ 	c #1297D0",
"# 	c #0F79A6",
"$ 	c #0E6F98",
"% 	c #1083B4",
"& 	c #23B0EC",
"* 	c #0C5B7C",
"= 	c #0D658A",
"- 	c #118DC2",
"; 	c #15ABEB",
"> 	c #0A4760",
", 	c #062936",
"' 	c #13A1DE",
") 	c #03141A",
"! 	c #093D52",
"~ 	c #3FBAEE",
"{ 	c #31B5ED",
"] 	c #0B1F71",
"^ 	c #DDDDDE",
"/ 	c #073344",
"( 	c #091755",
"_ 	c #0A1B63",
": 	c #0F2FA9",
"< 	c #7F849C",
"[ 	c #0D278D",
"} 	c #01090C",
"| 	c #77CEF2",
"1 	c #FFFFFF",
"2 	c #444A58",
"3 	c #6E748E",
"4 	c #888CA3",
"5 	c #676D85",
"6 	c #0E2B9B",
"7 	c #EDEDED",
"8 	c #52586A",
"9 	c #60667C",
"0 	c #A3A4B8",
"a 	c #2F353D",
"b 	c #9194AA",
"c 	c #0C237F",
"d 	c #F5F5F5",
"e 	c #4B5161",
"f 	c #767C95",
"g 	c #CAEFE6",
"h 	c #595F73",
"i 	c #9A9BB1",
"j 	c #E5E5E6",
"k 	c #B5B6C6",
"l 	c #5BBEA6",
"m 	c #43A990",
"n 	c #FDFDFD",
"o 	c #9A9CB1",
"p 	c #ACADBF",
"q 	c #FAFDFD",
"r 	c #66C2AC",
"s 	c #3B937E",
"t 	c #D6F3EC",
"u 	c #7CCAB8",
"v 	c #3F9E87",
"w 	c #47B499",
"x 	c #9192AA",
"y 	c #71C2B2",
"z 	c #71C6B2",
"A 	c #71C7B2",
"B 	c #BEEBE0",
"C 	c #87CEBE",
"D 	c #6E6F8E",
"E 	c #A8DBD0",
"F 	c #92D2C4",
"G 	c #337D6C",
"H 	c #D3D8ED",
"I 	c #B2E7DA",
"J 	c #EEFAF7",
"K 	c #DEE2F1",
"L 	c #50BAA0",
"M 	c #BDC4E5",
"N 	c #B2B9DC",
"O 	c #C8CEE9",
"P 	c #7088BF",
"Q 	c #378875",
"R 	c #E2F6F1",
"S 	c #9DD6CA",
"T 	c #9CA6D9",
"U 	c #C8D0E7",
"V 	c #BDC7E2",
"W 	c #A6E3D4",
"X 	c #A7B0DD",
"Y 	c #BDC3E1",
"Z 	c #B2BAE1",
"` 	c #E7E7E7",
" .	c #DFDFDF",
"..	c #BEE4DC",
"+.	c #CFCFCF",
"@.	c #8691C8",
"#.	c #F4F5FA",
"$.	c #8692D1",
"%.	c #919CD5",
"&.	c #E9EBF6",
"*.	c #707EC9",
"=.	c #A7B5D8",
"-.	c #F7F7F7",
";.	c #C8CDEA",
">.	c #7B88CD",
",.	c #8F8F8F",
"'.	c #EFEFEF",
").	c #DEE1F0",
"!.	c #9ADFCE",
"~.	c #DEE1F2",
"{.	c #6574C5",
"].	c #081347",
"^.	c #060F39",
"/.	c #02040F",
"(.	c #080808",
"_.	c #105B7B",
":.	c #181818",
"<.	c #0A516E",
"[.	c #0F5B7C",
"}.	c #094760",
"|.	c #0C4760",
"1.	c #0B4760",
"2.	c #041F28",
"3.	c #052A36",
"                                                                                                                                ",
"                                                                                                                                ",
"                                              .                                                                                 ",
"                                                                                                                                ",
"                                                                                                                                ",
"                                                                                                                                ",
"                                                                                .                                               ",
"                                                                                                                                ",
"                                                                                                                                ",
"                                                      + + + @ # $ $ % $ #                                   .                   ",
"                    .                         + + $ & * = - * * = = * = + % ; - =                                               ",
"                                          * = % > > + , = = * = * = * + = = $ ' @ # +                                           ",
"                                      * @ * > , )   ! > $ = $ $ = = # + * $ & + $ # ~ $ +                                       ",
"                                    * , + , $ ) + + $ # $ # # $ % $ # * = * ; + - # + ' # +                                     ",
"                                  % > $     !   + * > $ + + + $ = % # + = * - - $ # ' @ { { +                                   ",
"                              ] ^ ^ > % ' / $ > $ $ > * = + - * + = $ * = * = - { ' % = @ - ^ ^ ^                               ",
"                              ] ( ^ > > + = / ! # > + * * * $ = $ # - * + * - + & # ; - - + ^ _ :                               ",
"                            < < [ ^ ^ ^ ) } > ) !   = % $ $ $ = % = + + * * % % { | = + ^ ^ 1 [ 2 3                             ",
"                          < 4 5 6 [ _ ^ ^ ^ # = + ! + + = * @ = * * = * * + ~ { $ * ^ ^ 7 : _ 8 9 < 8                           ",
"                        < 2 3 0 a b c ] ( ^ ^ $ ; ! + + + + * = + + + + # % @ * ^ ^ d ] _ ( 9 e 4 8 f 3                         ",
"                        g 5 h < i 8 < 4 [ 6 ^ ^ ^ # ' - - $ = $ = % ' @ $ + ^ j d [ ] ( 3 h 2 3 5 k < 1                         ",
"                      l m g 5 < f < 9 f 0 _ c c 1 d ^ ^ ^ ^ + ; $ * + ^ ^ d n ] ( ( 3 3 h 5 f 3 o p q r s                       ",
"                      l r t 3 9 5 < 8 9 3 0 4 ( ( ] 6 ] ( ^ ^ j d d 7 n c ( ( 3 3 3 8 3 h 3 < p < f q u v                       ",
"                    l l w m g f x 9 0 8 3 3 4 o 4 3 3 f ] 6 [ c ( ( ( ( ( 3 f e 8 f o 8 5 b o 3 3 q l y l l                     ",
"                    l z r A u B 4 < 3 0 e e 3 3 3 4 b 4 4 < o 4 f f b 3 f 3 3 4 o 3 h 5 b f 3 3 g r s u l l                     ",
"          .         l C z z s r B < D < b 5 8 h 9 9 9 h h 5 e h h 9 9 3 4 4 f f 8 h f 4 3 3 3 B z m l E z l                     ",
"        . . .       B l F E w v w B b 3 5 < f 3 3 3 3 3 3 3 3 3 f b f f 3 3 9 e 9 4 < 3 3 3 B u G z r z z B                     ",
"          .       H B l z r l r w v I J 4 b 3 9 f f 0 < 4 < f 4 < 3 h 8 9 e 5 3 b 3 3 3 B g u v r r l C l B H                   ",
"                  K J l z z l r l l G L q 3 < 4 4 4 3 e 9 9 9 9 9 9 5 3 3 < b 4 3 3 f t u z s u u l C u l B M                   ",
"                  N 1 B z z r r l l u v l q t t 3 3 f o o b o 4 < f 4 < < f 3 3 B J t l s l u r l u l z B H O                   ",
"                  P K g l u z r l r E z Q v l l J R J 4 < 4 3 3 3 3 3 3 3 B t t S l w w z r C F z l z l B T M                   ",
"                  U V t l l z C l r r z u v w s s l l B B t R J R g t R t u L m m v l l z r l S l z r l W O X                   ",
"                  U Y H g l l F C r r r z r l l z w Q w Q m L r l l l r l m w u l l z z l l l C z r l B M H M                   ",
"                  Z ` O K B l r u r l u r r u z C r r z S z F w m m v m v l l l z u l r l l u z r l B H X H T                   ",
"                  H  .T U B l l C z r l z l r l ..F u C l r C z l r z z u r z r l l u l l l S r l l B H Z H X                   ",
"                  H +.@.Z #.B l z u r l C l z l F l u u z l l u l l l l r r C u z u r z C F S l l B H $.X H T                   ",
"                  H ` %.+.&.H B l u C l r r r l C u S z C r z E l l l l r z l l l l r r S C l l B O Z %.*.X M                   ",
"                    1 =.-.;.#.H B l r C z r z l l C u l z r z z l l l l C l l l r r l u F z l B H Z >.M T %.                    ",
"                    1 1 ,.;. .H 1 B l l l r u u u S u l l l l l l l l u l l l z l l F F r l B O O Z H X Z Z                     ",
"                    1 #.1 $.'.Z '.O W B l l r z r C r C u u r l l l r r l l l u l l r z B B M H X O M Z M H                     ",
"                    ( ( 1 ).N O  .H H O I L l l l l l u z l u l l l z l l z r l r u l B H T H M X H X M H (                     ",
"                      ( ( U  . .1 $.H H H B !.I C F z z l l l u F C r r C l l l B B B M H H M O O M Z M (                       ",
"                      * _ ( ~.~. .H T M H H H O !.g g r r l l r r C u l l B B B H H M O M Z H Z O {.T ]./                       ",
"                        # ( ( O '.Z O Z >.Z H H O M H B g t t g B B B B B H H H H X M O M Z X H M H ]./                         ",
"                        = $ ( ( H Z $.X H H H H H >.H H H H H H H H H H H H $.Z T Z M O %.X O O H O ].,                         ",
"                          - % * ( ( M O Z M M X O X O O O M Z O M X O Z O Z H M M M O X T %.%.O ].^.                            ",
"                            * $ # ( ( ( O Z M O X X Z H H H H H H H H H M X M Z H H H H H H M ].(                               ",
"                              # $ @ + ( ( ( H H H H O T T Z M M Z M M Z M O H H H H H H ( ( ^.>                                 ",
"                              = = $ = > $ * _ ( ( ( ( ( ( ( Z Z Z Z M X Z *.M M T /.( ( ( / ! )                                 ",
"                                (.= # # % # + $ = * # % @ ( ( ( ( ( ( ( ( ^.^.( ( ( + > _.$ +                                   ",
"                                  :.$ % $ = = # - { * + @ + # $ = * $ $ * * <.<.= [.}.! + /                                     ",
"                                      * # % $ # + > $ = = $ # = * > > > > |.}.$ 1.2.  / /                                       ",
"                                          + # @ = % = * * % * + @ % - @ = } ) } 2.! +                                           ",
"                                              # & # ; = = $ $ , + / / , *   2.> 3.                                              ",
"                                                      / , # ) > = % * > !                                                       ",
"                                                                                                                                ",
"                                                                                                                                ",
"                                                                                                                                ",
"                                                                                    .                       .                   ",
"                                                                                                                                ",
"          .                                                                                                       .             ",
"                                                                                                                                ",
"                                                                                                                                ",
"                                                                                                                                "};
